<svg width="172" height="28" viewBox="0 0 172 28" fill="none" xmlns="http://www.w3.org/2000/svg">
<path d="M1.24805 11.918V7.83984H16.7871V12.0059L7.06641 22.8867H17.1211V27H0.580078V23.0977L10.4062 11.918H1.24805ZM30.9023 7.34766C32.0859 7.34766 33.1582 7.55273 34.1191 7.96289C35.0918 8.37305 35.8887 9 36.5098 9.84375C37.0371 10.5586 37.3594 11.2969 37.4766 12.0586C37.5938 12.8086 37.6523 14.0391 37.6523 15.75V27H32.5371V15.3457C32.5371 14.3145 32.3613 13.4824 32.0098 12.8496C31.5527 11.959 30.6855 11.5137 29.4082 11.5137C28.084 11.5137 27.0762 11.959 26.3848 12.8496C25.7051 13.7285 25.3652 14.9883 25.3652 16.6289V27H20.373V1.17773H25.3652V10.3359C26.0918 9.22266 26.9297 8.44922 27.8789 8.01562C28.8398 7.57031 29.8477 7.34766 30.9023 7.34766ZM47.4961 5.55469H42.416V0.931641H47.4961V5.55469ZM42.416 7.83984H47.4961V27H42.416V7.83984ZM64.1777 7.83984H69.5566L62.6484 27H57.3574L50.4844 7.83984H56.1094L60.0996 21.9727L64.1777 7.83984ZM82.9688 17.6836C82.6523 17.8828 82.3301 18.0469 82.002 18.1758C81.6855 18.293 81.2461 18.4043 80.6836 18.5098L79.5586 18.7207C78.5039 18.9082 77.748 19.1367 77.291 19.4062C76.5176 19.8633 76.1309 20.5723 76.1309 21.5332C76.1309 22.3887 76.3652 23.0098 76.834 23.3965C77.3145 23.7715 77.8945 23.959 78.5742 23.959C79.6523 23.959 80.6426 23.6426 81.5449 23.0098C82.459 22.377 82.9336 21.2227 82.9688 19.5469V17.6836ZM79.9277 15.3457C80.8535 15.2285 81.5156 15.082 81.9141 14.9062C82.6289 14.6016 82.9863 14.127 82.9863 13.4824C82.9863 12.6973 82.7109 12.1582 82.1602 11.8652C81.6211 11.5605 80.8242 11.4082 79.7695 11.4082C78.5859 11.4082 77.748 11.7012 77.2559 12.2871C76.9043 12.7207 76.6699 13.3066 76.5527 14.0449H71.7188C71.8242 12.3691 72.293 10.9922 73.125 9.91406C74.4492 8.22656 76.7227 7.38281 79.9453 7.38281C82.043 7.38281 83.9062 7.79883 85.5352 8.63086C87.1641 9.46289 87.9785 11.0332 87.9785 13.3418V22.1309C87.9785 22.7402 87.9902 23.4785 88.0137 24.3457C88.0488 25.002 88.1484 25.4473 88.3125 25.6816C88.4766 25.916 88.7227 26.1094 89.0508 26.2617V27H83.6016C83.4492 26.6133 83.3438 26.25 83.2852 25.9102C83.2266 25.5703 83.1797 25.1836 83.1445 24.75C82.4531 25.5 81.6562 26.1387 80.7539 26.666C79.6758 27.2871 78.457 27.5977 77.0977 27.5977C75.3633 27.5977 73.9277 27.1055 72.791 26.1211C71.666 25.125 71.1035 23.7188 71.1035 21.9023C71.1035 19.5469 72.0117 17.8418 73.8281 16.7871C74.8242 16.2129 76.2891 15.8027 78.2227 15.5566L79.9277 15.3457ZM100.494 11.584V8.01562H103.166V2.67188H108.123V8.01562H111.234V11.584H108.123V21.709C108.123 22.4941 108.223 22.9863 108.422 23.1855C108.621 23.373 109.23 23.4668 110.25 23.4668C110.402 23.4668 110.561 23.4668 110.725 23.4668C110.9 23.4551 111.07 23.4434 111.234 23.4316V27.1758L108.861 27.2637C106.494 27.3457 104.877 26.9355 104.01 26.0332C103.447 25.459 103.166 24.5742 103.166 23.3789V11.584H100.494ZM122.01 11.4609C120.85 11.4609 119.947 11.8242 119.303 12.5508C118.67 13.2773 118.271 14.2617 118.107 15.5039H125.895C125.812 14.1797 125.408 13.1777 124.682 12.498C123.967 11.8066 123.076 11.4609 122.01 11.4609ZM122.01 7.33008C123.604 7.33008 125.039 7.62891 126.316 8.22656C127.594 8.82422 128.648 9.76758 129.48 11.0566C130.23 12.1934 130.717 13.5117 130.939 15.0117C131.068 15.8906 131.121 17.1562 131.098 18.8086H117.984C118.055 20.7305 118.658 22.0781 119.795 22.8516C120.486 23.332 121.318 23.5723 122.291 23.5723C123.322 23.5723 124.16 23.2793 124.805 22.6934C125.156 22.377 125.467 21.9375 125.736 21.375H130.852C130.723 22.5117 130.131 23.666 129.076 24.8379C127.436 26.7012 125.139 27.6328 122.186 27.6328C119.748 27.6328 117.598 26.8477 115.734 25.2773C113.871 23.707 112.939 21.1523 112.939 17.6133C112.939 14.2969 113.777 11.7539 115.453 9.98438C117.141 8.21484 119.326 7.33008 122.01 7.33008ZM145.934 14.7129C145.84 13.998 145.6 13.3535 145.213 12.7793C144.65 12.0059 143.777 11.6191 142.594 11.6191C140.906 11.6191 139.752 12.457 139.131 14.1328C138.803 15.0234 138.639 16.207 138.639 17.6836C138.639 19.0898 138.803 20.2207 139.131 21.0762C139.729 22.6699 140.854 23.4668 142.506 23.4668C143.678 23.4668 144.51 23.1504 145.002 22.5176C145.494 21.8848 145.793 21.0645 145.898 20.0566H151.014C150.896 21.5801 150.346 23.0215 149.361 24.3809C147.791 26.5723 145.465 27.668 142.383 27.668C139.301 27.668 137.033 26.7539 135.58 24.9258C134.127 23.0977 133.4 20.7246 133.4 17.8066C133.4 14.5137 134.203 11.9531 135.809 10.125C137.414 8.29688 139.629 7.38281 142.453 7.38281C144.855 7.38281 146.818 7.92188 148.342 9C149.877 10.0781 150.785 11.9824 151.066 14.7129H145.934ZM165.094 7.34766C166.277 7.34766 167.35 7.55273 168.311 7.96289C169.283 8.37305 170.08 9 170.701 9.84375C171.229 10.5586 171.551 11.2969 171.668 12.0586C171.785 12.8086 171.844 14.0391 171.844 15.75V27H166.729V15.3457C166.729 14.3145 166.553 13.4824 166.201 12.8496C165.744 11.959 164.877 11.5137 163.6 11.5137C162.275 11.5137 161.268 11.959 160.576 12.8496C159.896 13.7285 159.557 14.9883 159.557 16.6289V27H154.564V1.17773H159.557V10.3359C160.283 9.22266 161.121 8.44922 162.07 8.01562C163.031 7.57031 164.039 7.34766 165.094 7.34766Z" fill="black"/>
<path d="M92.3555 21.7617H97.6816V27H92.3555V21.7617Z" fill="#09959C"/>
</svg>
